REM DIRINDEX 1\2\3,1\2\4,1\2\5,1\2\6
REM DIRNAME cjc157,folder01,folder02,folder03,folder04,folder05
TITLE ""
FILE "004 004.mp3" MP3
  TRACK 01 AUDIO
    TITLE "0:"
    INDEX 01 00:00:00
  TRACK 02 AUDIO
    TITLE "3:cjc157_0082"
    INDEX 01 00:00:13
  TRACK 03 AUDIO
    TITLE "0:"
    INDEX 01 00:01:30
  TRACK 04 AUDIO
    TITLE "4:cjc157_0083"
    INDEX 01 00:02:06
  TRACK 05 AUDIO
    TITLE "0:"
    INDEX 01 00:03:14
  TRACK 06 AUDIO
    TITLE "5:cjc157_0084"
    INDEX 01 00:03:57
  TRACK 07 AUDIO
    TITLE "0:"
    INDEX 01 00:05:44
  TRACK 08 AUDIO
    TITLE "3:cjc157_0085"
    INDEX 01 00:06:12
  TRACK 09 AUDIO
    TITLE "0:"
    INDEX 01 00:07:54
  TRACK 10 AUDIO
    TITLE "4:cjc157_0086"
    INDEX 01 00:08:28
  TRACK 11 AUDIO
    TITLE "0:"
    INDEX 01 00:09:28
  TRACK 12 AUDIO
    TITLE "5:cjc157_0087"
    INDEX 01 00:10:00
  TRACK 13 AUDIO
    TITLE "0:"
    INDEX 01 00:12:67
  TRACK 14 AUDIO
    TITLE "5:cjc157_0088"
    INDEX 01 00:13:39
  TRACK 15 AUDIO
    TITLE "0:"
    INDEX 01 00:15:74
  TRACK 16 AUDIO
    TITLE "5:cjc157_0089"
    INDEX 01 00:16:42
  TRACK 17 AUDIO
    TITLE "0:"
    INDEX 01 00:18:17
  TRACK 18 AUDIO
    TITLE "5:cjc157_0090"
    INDEX 01 00:18:60
  TRACK 19 AUDIO
    TITLE "0:"
    INDEX 01 00:20:30
  TRACK 20 AUDIO
    TITLE "3:cjc157_0091"
    INDEX 01 00:20:73
  TRACK 21 AUDIO
    TITLE "0:"
    INDEX 01 00:22:32
  TRACK 22 AUDIO
    TITLE "4:cjc157_0092"
    INDEX 01 00:23:03
  TRACK 23 AUDIO
    TITLE "0:"
    INDEX 01 00:24:04
  TRACK 24 AUDIO
    TITLE "5:cjc157_0093"
    INDEX 01 00:24:51
  TRACK 25 AUDIO
    TITLE "0:"
    INDEX 01 00:26:13
  TRACK 26 AUDIO
    TITLE "5:cjc157_0094"
    INDEX 01 00:26:60
  TRACK 27 AUDIO
    TITLE "0:"
    INDEX 01 00:28:19
  TRACK 28 AUDIO
    TITLE "3:cjc157_0095"
    INDEX 01 00:28:70
  TRACK 29 AUDIO
    TITLE "0:"
    INDEX 01 00:29:68
  TRACK 30 AUDIO
    TITLE "4:cjc157_0096"
    INDEX 01 00:30:40
  TRACK 31 AUDIO
    TITLE "0:"
    INDEX 01 00:31:47
  TRACK 32 AUDIO
    TITLE "5:cjc157_0097"
    INDEX 01 00:32:17
  TRACK 33 AUDIO
    TITLE "0:"
    INDEX 01 00:35:31
  TRACK 34 AUDIO
    TITLE "5:cjc157_0098"
    INDEX 01 00:35:74
  TRACK 35 AUDIO
    TITLE "0:"
    INDEX 01 00:37:48
  TRACK 36 AUDIO
    TITLE "3:cjc157_0099"
    INDEX 01 00:38:14
  TRACK 37 AUDIO
    TITLE "0:"
    INDEX 01 00:39:35
  TRACK 38 AUDIO
    TITLE "4:cjc157_0100"
    INDEX 01 00:40:03
  TRACK 39 AUDIO
    TITLE "0:"
    INDEX 01 00:43:13
  TRACK 40 AUDIO
    TITLE "5:cjc157_0101"
    INDEX 01 00:43:58
  TRACK 41 AUDIO
    TITLE "0:"
    INDEX 01 00:45:41
  TRACK 42 AUDIO
    TITLE "5:cjc157_0102"
    INDEX 01 00:46:13
  TRACK 43 AUDIO
    TITLE "0:"
    INDEX 01 00:48:73
  TRACK 44 AUDIO
    TITLE "3:cjc157_0103"
    INDEX 01 00:49:43
  TRACK 45 AUDIO
    TITLE "0:"
    INDEX 01 00:51:01
  TRACK 46 AUDIO
    TITLE "4:cjc157_0104"
    INDEX 01 00:51:50
  TRACK 47 AUDIO
    TITLE "0:"
    INDEX 01 00:54:64
  TRACK 48 AUDIO
    TITLE "5:cjc157_0105"
    INDEX 01 00:55:36
  TRACK 49 AUDIO
    TITLE "0:"
    INDEX 01 00:57:62
  TRACK 50 AUDIO
    TITLE "5:cjc157_0106"
    INDEX 01 00:58:30
  TRACK 51 AUDIO
    TITLE "0:"
    INDEX 01 01:01:01
  TRACK 52 AUDIO
    TITLE "3:cjc157_0107"
    INDEX 01 01:01:46
  TRACK 53 AUDIO
    TITLE "0:"
    INDEX 01 01:03:14
  TRACK 54 AUDIO
    TITLE "4:cjc157_0108"
    INDEX 01 01:03:61
  TRACK 55 AUDIO
    TITLE "0:"
    INDEX 01 01:07:06
  TRACK 56 AUDIO
    TITLE "5:cjc157_0109"
    INDEX 01 01:07:51
  TRACK 57 AUDIO
    TITLE "0:"
    INDEX 01 01:09:34
  TRACK 58 AUDIO
    TITLE "5:cjc157_0110"
    INDEX 01 01:10:02
  TRACK 59 AUDIO
    TITLE "0:"
    INDEX 01 01:11:70
  TRACK 60 AUDIO
    TITLE "3:cjc157_0111"
    INDEX 01 01:12:40
  TRACK 61 AUDIO
    TITLE "0:"
    INDEX 01 01:14:08
  TRACK 62 AUDIO
    TITLE "4:cjc157_0112"
    INDEX 01 01:14:53
  TRACK 63 AUDIO
    TITLE "0:"
    INDEX 01 01:16:12
  TRACK 64 AUDIO
    TITLE "5:cjc157_0113"
    INDEX 01 01:16:60
  TRACK 65 AUDIO
    TITLE "0:"
    INDEX 01 01:18:74
  TRACK 66 AUDIO
    TITLE "5:cjc157_0114"
    INDEX 01 01:19:42
  TRACK 67 AUDIO
    TITLE "0:"
    INDEX 01 01:21:43
  TRACK 68 AUDIO
    TITLE "3:cjc157_0115"
    INDEX 01 01:22:15
  TRACK 69 AUDIO
    TITLE "0:"
    INDEX 01 01:23:36
  TRACK 70 AUDIO
    TITLE "4:cjc157_0116"
    INDEX 01 01:24:12
  TRACK 71 AUDIO
    TITLE "0:"
    INDEX 01 01:25:23
  TRACK 72 AUDIO
    TITLE "5:cjc157_0117"
    INDEX 01 01:25:68
  TRACK 73 AUDIO
    TITLE "0:"
    INDEX 01 01:28:16
  TRACK 74 AUDIO
    TITLE "5:cjc157_0118"
    INDEX 01 01:28:61
  TRACK 75 AUDIO
    TITLE "0:"
    INDEX 01 01:30:62
  TRACK 76 AUDIO
    TITLE "5:cjc157_0119"
    INDEX 01 01:31:32
  TRACK 77 AUDIO
    TITLE "0:"
    INDEX 01 01:33:13
  TRACK 78 AUDIO
    TITLE "3:cjc157_0120"
    INDEX 01 01:33:58
  TRACK 79 AUDIO
    TITLE "0:"
    INDEX 01 01:35:24
  TRACK 80 AUDIO
    TITLE "4:cjc157_0121"
    INDEX 01 01:35:71
  TRACK 81 AUDIO
    TITLE "0:"
    INDEX 01 01:37:05
  TRACK 82 AUDIO
    TITLE "5:cjc157_0122"
    INDEX 01 01:37:54
  TRACK 83 AUDIO
    TITLE "0:"
    INDEX 01 01:39:29
  TRACK 84 AUDIO
    TITLE "5:cjc157_0123"
    INDEX 01 01:40:05
  TRACK 85 AUDIO
    TITLE "0:"
    INDEX 01 01:42:04
  TRACK 86 AUDIO
    TITLE "5:cjc157_0124"
    INDEX 01 01:42:45
  TRACK 87 AUDIO
    TITLE "0:"
    INDEX 01 01:44:62
